# xmcd
#
# Track frame offsets:
#	150
#	15371
#	34292
#	50653
#	66269
#	79944
#	98162
#	116934
#	129458
#	147817
#	163771
#
# Disc length: 2438 seconds
#
# Revision: 147889204
# Processed by: cddbd v1.5.2PL0 Copyright (c) Steve Scherf et al.
# Submitted via: EZCDAudioConverter 8.0.3.1
#
DISCID=9809840b
DTITLE=Various Artist - Gentle Giants: The Songs Of Don Williams
DYEAR=2017
DGENRE=Country
TTITLE0=Pistol Annies - Tulsa Time
TTITLE1=Brandy Clark - I Believe In You
TTITLE2=Lady Antebellum - We've Got A Good Fire Goin'
TTITLE3=Dierks Bentley - Some Broken Hearts Never Mend
TTITLE4=Morgane Stapleton - Amanda
TTITLE5=Alison Krauss - Till The Rivers All Run Dry
TTITLE6=Roger Cook - Love Is On A Roll
TTITLE7=Amanda Shires - If I Needed You
TTITLE8=Trisha Yearwood - Maggie's Dream
TTITLE9=Keb Mo - Lord I Hope This Day Is Good
TTITLE10=Garth Brooks - Good Ole Boys Like Me
EXTD=
EXTT0=
EXTT1=
EXTT2=
EXTT3=
EXTT4=
EXTT5=
EXTT6=
EXTT7=
EXTT8=
EXTT9=
EXTT10=
PLAYORDER=
